<mxfile host="app.diagrams.net" modified="2021-01-19T09:44:17.011Z" agent="5.0 (X11; Linux x86_64) AppleWebKit/537.36 (KHTML, like Gecko) Chrome/87.0.4280.141 Safari/537.36" etag="jT25hcXZL_T-Awzct9wk" version="14.2.4" type="github">
  <diagram id="r_2RkY1vnEpAnPOisBt5" name="Page-1">
    <mxGraphModel dx="3803" dy="2617" grid="1" gridSize="10" guides="1" tooltips="1" connect="1" arrows="1" fold="1" page="1" pageScale="1" pageWidth="827" pageHeight="1169" math="0" shadow="0">
      <root>
        <mxCell id="0" />
        <mxCell id="1" parent="0" />
        <mxCell id="unLmtyk_LzcFMC9aQ2RW-1" value="" style="rounded=1;whiteSpace=wrap;html=1;arcSize=14;" vertex="1" parent="1">
          <mxGeometry x="-40" y="-80" width="1350" height="620" as="geometry" />
        </mxCell>
        <mxCell id="unLmtyk_LzcFMC9aQ2RW-2" value="" style="rounded=0;whiteSpace=wrap;html=1;direction=south;" vertex="1" parent="1">
          <mxGeometry x="20" y="10" width="550" height="510" as="geometry" />
        </mxCell>
        <mxCell id="unLmtyk_LzcFMC9aQ2RW-3" value="&lt;font style=&quot;font-size: 14px&quot;&gt;Рецепты&lt;/font&gt;" style="rounded=0;whiteSpace=wrap;html=1;" vertex="1" parent="1">
          <mxGeometry x="170" y="210" width="120" height="60" as="geometry" />
        </mxCell>
        <mxCell id="unLmtyk_LzcFMC9aQ2RW-4" value="&lt;font style=&quot;font-size: 14px&quot;&gt;Главная&lt;/font&gt;" style="rounded=0;whiteSpace=wrap;html=1;" vertex="1" parent="1">
          <mxGeometry x="40" y="210" width="120" height="60" as="geometry" />
        </mxCell>
        <mxCell id="unLmtyk_LzcFMC9aQ2RW-5" value="&lt;font style=&quot;font-size: 14px&quot;&gt;Рецепт:&lt;br&gt;&lt;br&gt;- Ингредиенты (описание ингредиентов, каждый ингредиент будет кликабельным, а ссылка ведет на страницу с полезными статьями, посвященными ингредиенту; по желанию фото ингредиентов, средняя стоимость)&lt;br&gt;- Описание (длительность подготовки, процесса приготовления, количество порций, текстовое описание процесса приготовления, фото, видео)&lt;br&gt;- Рейтинг, комментарии, ссылка на автора&lt;br&gt;- Похожие рецепты&lt;br&gt;&lt;/font&gt;&lt;div style=&quot;font-size: 14px&quot;&gt;&lt;br&gt;&lt;/div&gt;" style="rounded=0;whiteSpace=wrap;html=1;align=left;" vertex="1" parent="1">
          <mxGeometry x="40" y="310" width="520" height="200" as="geometry" />
        </mxCell>
        <mxCell id="unLmtyk_LzcFMC9aQ2RW-6" value="&lt;font style=&quot;font-size: 14px&quot;&gt;Общий шаблон:&lt;br&gt;1.) Header&lt;br&gt;2.) Footer&lt;/font&gt;" style="rounded=0;whiteSpace=wrap;html=1;" vertex="1" parent="1">
          <mxGeometry x="215" y="90" width="120" height="60" as="geometry" />
        </mxCell>
        <mxCell id="unLmtyk_LzcFMC9aQ2RW-7" value="" style="rounded=0;whiteSpace=wrap;html=1;" vertex="1" parent="1">
          <mxGeometry x="300" y="210" width="120" height="60" as="geometry" />
        </mxCell>
        <mxCell id="unLmtyk_LzcFMC9aQ2RW-8" value="&lt;font style=&quot;font-size: 20px&quot;&gt;Страницы&lt;/font&gt;" style="text;html=1;strokeColor=none;fillColor=none;align=center;verticalAlign=middle;whiteSpace=wrap;rounded=0;" vertex="1" parent="1">
          <mxGeometry x="220" y="40" width="110" height="20" as="geometry" />
        </mxCell>
        <mxCell id="unLmtyk_LzcFMC9aQ2RW-9" value="" style="whiteSpace=wrap;html=1;aspect=fixed;" vertex="1" parent="1">
          <mxGeometry x="760" width="510" height="510" as="geometry" />
        </mxCell>
        <mxCell id="unLmtyk_LzcFMC9aQ2RW-10" value="&lt;font style=&quot;font-size: 30px&quot;&gt;Frontend&lt;/font&gt;" style="text;html=1;strokeColor=none;fillColor=none;align=center;verticalAlign=middle;whiteSpace=wrap;rounded=0;" vertex="1" parent="1">
          <mxGeometry x="510" y="-40" width="344" height="20" as="geometry" />
        </mxCell>
        <mxCell id="unLmtyk_LzcFMC9aQ2RW-11" value="" style="rounded=1;whiteSpace=wrap;html=1;" vertex="1" parent="1">
          <mxGeometry x="-90" y="660" width="1490" height="720" as="geometry" />
        </mxCell>
        <mxCell id="unLmtyk_LzcFMC9aQ2RW-12" value="" style="rounded=0;whiteSpace=wrap;html=1;direction=south;" vertex="1" parent="1">
          <mxGeometry x="20" y="760" width="550" height="510" as="geometry" />
        </mxCell>
        <mxCell id="unLmtyk_LzcFMC9aQ2RW-13" value="Базы данных" style="text;html=1;strokeColor=none;fillColor=none;align=center;verticalAlign=middle;whiteSpace=wrap;rounded=0;" vertex="1" parent="1">
          <mxGeometry x="350" y="790" width="110" height="20" as="geometry" />
        </mxCell>
        <mxCell id="unLmtyk_LzcFMC9aQ2RW-14" value="&lt;font style=&quot;font-size: 30px&quot;&gt;Backend&lt;/font&gt;" style="text;html=1;strokeColor=none;fillColor=none;align=center;verticalAlign=middle;whiteSpace=wrap;rounded=0;" vertex="1" parent="1">
          <mxGeometry x="55" y="710" width="1200" height="20" as="geometry" />
        </mxCell>
        <mxCell id="unLmtyk_LzcFMC9aQ2RW-15" value="&lt;font style=&quot;font-size: 20px&quot;&gt;Компоненты&lt;/font&gt;" style="text;html=1;strokeColor=none;fillColor=none;align=center;verticalAlign=middle;whiteSpace=wrap;rounded=0;" vertex="1" parent="1">
          <mxGeometry x="995" y="40" width="40" height="20" as="geometry" />
        </mxCell>
        <mxCell id="unLmtyk_LzcFMC9aQ2RW-16" value="&lt;b&gt;Header&lt;/b&gt;&lt;br&gt;&lt;br&gt;1.) Логотип&lt;br&gt;2.) Меню сайта&lt;br&gt;2.1.) Поиск рецепта&lt;br&gt;2.2.) Рейтинг рецептов&lt;br&gt;2.3.) Рейтинг авторов&lt;br&gt;2.4.) Новости&lt;br&gt;2.5.) Статьи&lt;br&gt;3.) Окно входа" style="rounded=0;whiteSpace=wrap;html=1;" vertex="1" parent="1">
          <mxGeometry x="840" y="110" width="180" height="210" as="geometry" />
        </mxCell>
        <mxCell id="unLmtyk_LzcFMC9aQ2RW-17" value="&lt;b&gt;Footer&lt;/b&gt;&lt;br&gt;" style="rounded=0;whiteSpace=wrap;html=1;" vertex="1" parent="1">
          <mxGeometry x="1070" y="110" width="120" height="210" as="geometry" />
        </mxCell>
      </root>
    </mxGraphModel>
  </diagram>
</mxfile>
